<mxfile host="app.diagrams.net" modified="2023-03-01T04:50:10.742Z" agent="5.0 (Windows)" etag="LCBmTNu83M6nIbJ5WzQj" version="20.8.23" type="github" pages="5">
  <diagram name="Core System BAF" id="z5dY3oHtpOFyJrsAhR7W">
    <mxGraphModel dx="1114" dy="616" grid="1" gridSize="10" guides="1" tooltips="1" connect="1" arrows="1" fold="1" page="1" pageScale="1" pageWidth="850" pageHeight="1100" math="0" shadow="0">
      <root>
        <mxCell id="0" />
        <mxCell id="1" parent="0" />
        <mxCell id="1X0tU3my42QeKfhquebm-1" value="" style="edgeStyle=orthogonalEdgeStyle;rounded=0;orthogonalLoop=1;jettySize=auto;html=1;labelBackgroundColor=none;fontSize=15;fontColor=#0000CC;" edge="1" parent="1" source="1X0tU3my42QeKfhquebm-2" target="1X0tU3my42QeKfhquebm-9">
          <mxGeometry relative="1" as="geometry" />
        </mxCell>
        <mxCell id="1X0tU3my42QeKfhquebm-2" value="&lt;div&gt;&lt;font style=&quot;font-size: 15px;&quot;&gt;Finance&lt;/font&gt;&lt;/div&gt;&lt;div&gt;&lt;font style=&quot;font-size: 15px;&quot;&gt;Company System&lt;/font&gt;&lt;/div&gt;" style="ellipse;whiteSpace=wrap;html=1;aspect=fixed;fillColor=default;" vertex="1" parent="1">
          <mxGeometry x="90" y="150" width="80" height="80" as="geometry" />
        </mxCell>
        <mxCell id="1X0tU3my42QeKfhquebm-3" value="&lt;h1&gt;Fincoy System&lt;br&gt;&lt;/h1&gt;&lt;p&gt;Merupakan sistem yang mengirimkan data-data inventory ( unit ) yang mau di lakukan lelang&lt;br&gt;&lt;/p&gt;" style="text;html=1;strokeColor=none;fillColor=none;spacing=5;spacingTop=-20;whiteSpace=wrap;overflow=hidden;rounded=0;fontSize=15;" vertex="1" parent="1">
          <mxGeometry x="20" y="310" width="255" height="170" as="geometry" />
        </mxCell>
        <mxCell id="1X0tU3my42QeKfhquebm-4" value="&lt;h1&gt;SiLelang System (Web / App)&lt;br&gt;&lt;/h1&gt;&lt;div&gt;Merupakan sistem yang menghandle beberapa user berikut :&lt;br&gt;&lt;ol&gt;&lt;li&gt;Fincoy Client&lt;br&gt;&lt;/li&gt;&lt;ul&gt;&lt;li&gt;Menerima data inventory produk dari Fincoy Company System (1 arah) dan Mengelolah data inventory produk &lt;br&gt;&lt;/li&gt;&lt;li&gt;Tempat untuk mengelola keperluan administrasi lelang &lt;br&gt;&lt;/li&gt;&lt;li&gt;Tempat pengajuan Risalah Lelang untuk cabang dan Approval Risalah Lelang untuk Headoffice&lt;br&gt;&lt;/li&gt;&lt;li&gt;Tempat untuk menampilkan unit yang siap dilelang maupun unit yang sedang dilelang&lt;/li&gt;&lt;li&gt;Tempat untuk Head Office mengelolah cabang&lt;/li&gt;&lt;li&gt;Tempat untuk melihat Aktivitas Lelang masing-masing cabang&lt;br&gt;&lt;/li&gt;&lt;/ul&gt;&lt;li&gt;Peserta&lt;/li&gt;&lt;ul&gt;&lt;li&gt;Tempat untuk melihat jadwal lelang yang sedang berlangsung maupun yang akan datang&lt;br&gt;&lt;/li&gt;&lt;li&gt;Tempat untuk melakukan proses tawar menawar selama proses lelang berlangsung&lt;br&gt;&lt;/li&gt;&lt;/ul&gt;&lt;li&gt;Balai Lelang&lt;/li&gt;&lt;ul&gt;&lt;li&gt;Tempat untuk melihat Aktivitas Fincoy Client dan Peserta&lt;br&gt;&lt;/li&gt;&lt;li&gt;Mengelolah transaksi peserta lelang&lt;/li&gt;&lt;li&gt;Mengelolah jadwal lelang&lt;/li&gt;&lt;li&gt;Mengelolah uang jaminan peserta lelang&lt;/li&gt;&lt;li&gt;Mengelolah peserta dan Fincoy Client&lt;br&gt;&lt;/li&gt;&lt;li&gt;Mengelolah Fincoy Client&lt;br&gt;&lt;/li&gt;&lt;/ul&gt;&lt;/ol&gt;&lt;/div&gt;" style="text;html=1;strokeColor=none;fillColor=none;spacing=5;spacingTop=-20;whiteSpace=wrap;overflow=hidden;rounded=0;fontSize=15;" vertex="1" parent="1">
          <mxGeometry x="280" y="310" width="540" height="520" as="geometry" />
        </mxCell>
        <mxCell id="1X0tU3my42QeKfhquebm-5" value="&lt;div style=&quot;font-size: 15px;&quot;&gt;&lt;font style=&quot;font-size: 15px;&quot;&gt;&lt;font style=&quot;font-size: 15px;&quot;&gt;&lt;font style=&quot;font-size: 15px;&quot;&gt;&lt;font style=&quot;font-size: 15px;&quot;&gt;&lt;font style=&quot;font-size: 15px;&quot;&gt;Fincoy&lt;/font&gt;&lt;/font&gt;&lt;/font&gt;&lt;/font&gt;&lt;/font&gt;&lt;/div&gt;&lt;div style=&quot;font-size: 15px;&quot;&gt;&lt;font style=&quot;font-size: 15px;&quot;&gt;&lt;font style=&quot;font-size: 15px;&quot;&gt;&lt;font style=&quot;font-size: 15px;&quot;&gt;&lt;font style=&quot;font-size: 15px;&quot;&gt;&lt;font style=&quot;font-size: 15px;&quot;&gt;Client&lt;br&gt;&lt;/font&gt;&lt;/font&gt;&lt;/font&gt;&lt;/font&gt;&lt;/font&gt;&lt;/div&gt;" style="ellipse;whiteSpace=wrap;html=1;aspect=fixed;fillColor=default;" vertex="1" parent="1">
          <mxGeometry x="375" y="120" width="80" height="80" as="geometry" />
        </mxCell>
        <mxCell id="1X0tU3my42QeKfhquebm-6" value="Core System" style="text;html=1;strokeColor=none;fillColor=none;align=center;verticalAlign=middle;whiteSpace=wrap;rounded=0;fontSize=15;" vertex="1" parent="1">
          <mxGeometry x="200" y="20" width="245" height="30" as="geometry" />
        </mxCell>
        <mxCell id="1X0tU3my42QeKfhquebm-7" value="&lt;div&gt;&lt;font style=&quot;font-size: 13px;&quot;&gt;&lt;font style=&quot;font-size: 14px;&quot;&gt;&lt;font style=&quot;font-size: 15px;&quot;&gt;Balai&lt;/font&gt;&lt;/font&gt;&lt;/font&gt;&lt;/div&gt;&lt;div&gt;&lt;font style=&quot;font-size: 13px;&quot;&gt;&lt;font style=&quot;font-size: 14px;&quot;&gt;&lt;font style=&quot;font-size: 15px;&quot;&gt;Lelang&lt;br&gt;&lt;/font&gt;&lt;/font&gt;&lt;/font&gt;&lt;/div&gt;" style="ellipse;whiteSpace=wrap;html=1;aspect=fixed;fillColor=default;" vertex="1" parent="1">
          <mxGeometry x="490" y="120" width="80" height="80" as="geometry" />
        </mxCell>
        <mxCell id="1X0tU3my42QeKfhquebm-8" value="&lt;font style=&quot;font-size: 13px;&quot;&gt;&lt;font style=&quot;font-size: 14px;&quot;&gt;&lt;font style=&quot;font-size: 15px;&quot;&gt;Peserta&lt;/font&gt;&lt;/font&gt;&lt;/font&gt;" style="ellipse;whiteSpace=wrap;html=1;aspect=fixed;fillColor=default;" vertex="1" parent="1">
          <mxGeometry x="430" y="200" width="80" height="80" as="geometry" />
        </mxCell>
        <mxCell id="1X0tU3my42QeKfhquebm-9" value="" style="rounded=1;whiteSpace=wrap;html=1;labelBackgroundColor=none;strokeColor=default;fontSize=15;fontColor=#0000CC;fillColor=none;" vertex="1" parent="1">
          <mxGeometry x="300" y="80" width="340" height="220" as="geometry" />
        </mxCell>
      </root>
    </mxGraphModel>
  </diagram>
  <diagram id="8m_f1Z5eqxMMU7mHxv0M" name="Core System Balai lelang">
    <mxGraphModel dx="1114" dy="616" grid="1" gridSize="10" guides="1" tooltips="1" connect="1" arrows="1" fold="1" page="1" pageScale="1" pageWidth="850" pageHeight="1100" math="0" shadow="0">
      <root>
        <mxCell id="0" />
        <mxCell id="1" parent="0" />
        <mxCell id="YuZNqF5wTPu1_VmZ-oEM-1" value="" style="rounded=1;whiteSpace=wrap;html=1;labelBackgroundColor=none;strokeColor=default;fontSize=15;fontColor=#0000CC;fillColor=none;" vertex="1" parent="1">
          <mxGeometry x="300" y="120" width="340" height="140" as="geometry" />
        </mxCell>
        <mxCell id="YuZNqF5wTPu1_VmZ-oEM-2" value="" style="edgeStyle=orthogonalEdgeStyle;rounded=0;orthogonalLoop=1;jettySize=auto;html=1;labelBackgroundColor=none;fontSize=15;fontColor=#0000CC;" edge="1" parent="1" source="YuZNqF5wTPu1_VmZ-oEM-3" target="YuZNqF5wTPu1_VmZ-oEM-1">
          <mxGeometry relative="1" as="geometry" />
        </mxCell>
        <mxCell id="YuZNqF5wTPu1_VmZ-oEM-3" value="&lt;div&gt;&lt;font style=&quot;font-size: 15px;&quot;&gt;Finance&lt;/font&gt;&lt;/div&gt;&lt;div&gt;&lt;font style=&quot;font-size: 15px;&quot;&gt;Company System&lt;/font&gt;&lt;/div&gt;" style="ellipse;whiteSpace=wrap;html=1;aspect=fixed;fillColor=default;" vertex="1" parent="1">
          <mxGeometry x="90" y="150" width="80" height="80" as="geometry" />
        </mxCell>
        <mxCell id="YuZNqF5wTPu1_VmZ-oEM-4" value="&lt;h1&gt;Fincoy System&lt;br&gt;&lt;/h1&gt;&lt;p&gt;Merupakan sistem yang mengirimkan data-data inventory ( unit ) yang mau di lakukan lelang&lt;br&gt;&lt;/p&gt;" style="text;html=1;strokeColor=none;fillColor=none;spacing=5;spacingTop=-20;whiteSpace=wrap;overflow=hidden;rounded=0;fontSize=15;" vertex="1" parent="1">
          <mxGeometry x="25" y="290" width="255" height="170" as="geometry" />
        </mxCell>
        <mxCell id="YuZNqF5wTPu1_VmZ-oEM-5" value="&lt;h1&gt;SiLelang System (Web / App)&lt;br&gt;&lt;/h1&gt;&lt;div&gt;Merupakan sistem yang menghandle beberapa user berikut :&lt;br&gt;&lt;ol&gt;&lt;li&gt;Fincoy Client&lt;br&gt;&lt;/li&gt;&lt;ul&gt;&lt;li&gt;Menerima data inventory produk dari Fincoy Company System (1 arah) dan Mengelolah data inventory produk &lt;br&gt;&lt;/li&gt;&lt;li&gt;Tempat untuk mengelola keperluan administrasi lelang &lt;br&gt;&lt;/li&gt;&lt;li&gt;Tempat pengajuan Risalah Lelang untuk cabang dan Approval Risalah Lelang untuk Headoffice&lt;br&gt;&lt;/li&gt;&lt;li&gt;Tempat untuk menampilkan unit yang siap dilelang maupun unit yang sedang dilelang&lt;/li&gt;&lt;li&gt;Tempat untuk Head Office mengelolah cabang&lt;/li&gt;&lt;li&gt;Tempat untuk melihat Aktivitas Lelang masing-masing cabang&lt;br&gt;&lt;/li&gt;&lt;/ul&gt;&lt;li&gt;Peserta&lt;/li&gt;&lt;ul&gt;&lt;li&gt;Tempat untuk melihat jadwal lelang yang sedang berlangsung maupun yang akan datang&lt;br&gt;&lt;/li&gt;&lt;li&gt;Tempat untuk melakukan proses tawar menawar selama proses lelang berlangsung&lt;br&gt;&lt;/li&gt;&lt;/ul&gt;&lt;/ol&gt;&lt;/div&gt;" style="text;html=1;strokeColor=none;fillColor=none;spacing=5;spacingTop=-20;whiteSpace=wrap;overflow=hidden;rounded=0;fontSize=15;" vertex="1" parent="1">
          <mxGeometry x="280" y="290" width="540" height="400" as="geometry" />
        </mxCell>
        <mxCell id="YuZNqF5wTPu1_VmZ-oEM-6" value="&lt;div style=&quot;font-size: 15px;&quot;&gt;&lt;font style=&quot;font-size: 15px;&quot;&gt;&lt;font style=&quot;font-size: 15px;&quot;&gt;&lt;font style=&quot;font-size: 15px;&quot;&gt;&lt;font style=&quot;font-size: 15px;&quot;&gt;&lt;font style=&quot;font-size: 15px;&quot;&gt;Fincoy&lt;/font&gt;&lt;/font&gt;&lt;/font&gt;&lt;/font&gt;&lt;/font&gt;&lt;/div&gt;&lt;div style=&quot;font-size: 15px;&quot;&gt;&lt;font style=&quot;font-size: 15px;&quot;&gt;&lt;font style=&quot;font-size: 15px;&quot;&gt;&lt;font style=&quot;font-size: 15px;&quot;&gt;&lt;font style=&quot;font-size: 15px;&quot;&gt;&lt;font style=&quot;font-size: 15px;&quot;&gt;Client&lt;br&gt;&lt;/font&gt;&lt;/font&gt;&lt;/font&gt;&lt;/font&gt;&lt;/font&gt;&lt;/div&gt;" style="ellipse;whiteSpace=wrap;html=1;aspect=fixed;fillColor=default;" vertex="1" parent="1">
          <mxGeometry x="380" y="150" width="80" height="80" as="geometry" />
        </mxCell>
        <mxCell id="YuZNqF5wTPu1_VmZ-oEM-7" value="Core System" style="text;html=1;strokeColor=none;fillColor=none;align=center;verticalAlign=middle;whiteSpace=wrap;rounded=0;fontSize=15;" vertex="1" parent="1">
          <mxGeometry x="200" y="20" width="245" height="30" as="geometry" />
        </mxCell>
        <mxCell id="YuZNqF5wTPu1_VmZ-oEM-8" value="&lt;font style=&quot;font-size: 13px;&quot;&gt;&lt;font style=&quot;font-size: 14px;&quot;&gt;&lt;font style=&quot;font-size: 15px;&quot;&gt;Peserta&lt;/font&gt;&lt;/font&gt;&lt;/font&gt;" style="ellipse;whiteSpace=wrap;html=1;aspect=fixed;fillColor=default;" vertex="1" parent="1">
          <mxGeometry x="520" y="150" width="80" height="80" as="geometry" />
        </mxCell>
      </root>
    </mxGraphModel>
  </diagram>
  <diagram id="ogJkQkt02KYvnXUt0X2k" name="Flow Peserta Umum">
    <mxGraphModel dx="1964" dy="616" grid="1" gridSize="10" guides="1" tooltips="1" connect="1" arrows="1" fold="1" page="1" pageScale="1" pageWidth="850" pageHeight="1100" math="0" shadow="0">
      <root>
        <mxCell id="0" />
        <mxCell id="1" parent="0" />
        <mxCell id="WtScBkQE4KedMKeKX7Xe-1" value="" style="rounded=0;whiteSpace=wrap;html=1;labelBackgroundColor=none;strokeColor=default;fontSize=15;fontColor=#0000CC;fillColor=none;" vertex="1" parent="1">
          <mxGeometry x="-215" y="110" width="215" height="990" as="geometry" />
        </mxCell>
        <mxCell id="WtScBkQE4KedMKeKX7Xe-2" value="Cabang" style="text;html=1;strokeColor=none;fillColor=none;align=center;verticalAlign=middle;whiteSpace=wrap;rounded=0;fontSize=15;" vertex="1" parent="1">
          <mxGeometry x="350" y="130" width="140" height="30" as="geometry" />
        </mxCell>
        <mxCell id="WtScBkQE4KedMKeKX7Xe-3" value="HeadOffice" style="text;html=1;strokeColor=none;fillColor=none;align=center;verticalAlign=middle;whiteSpace=wrap;rounded=0;fontSize=15;" vertex="1" parent="1">
          <mxGeometry x="85" y="130" width="140" height="30" as="geometry" />
        </mxCell>
        <mxCell id="WtScBkQE4KedMKeKX7Xe-4" value="Balai Lelang" style="text;html=1;strokeColor=none;fillColor=none;align=center;verticalAlign=middle;whiteSpace=wrap;rounded=0;fontSize=15;" vertex="1" parent="1">
          <mxGeometry x="600" y="130" width="140" height="30" as="geometry" />
        </mxCell>
        <mxCell id="WtScBkQE4KedMKeKX7Xe-5" value="Fincoy System" style="text;html=1;strokeColor=none;fillColor=none;align=center;verticalAlign=middle;whiteSpace=wrap;rounded=0;fontSize=15;" vertex="1" parent="1">
          <mxGeometry x="-165" y="130" width="140" height="30" as="geometry" />
        </mxCell>
        <mxCell id="WtScBkQE4KedMKeKX7Xe-6" value="" style="edgeStyle=orthogonalEdgeStyle;rounded=0;orthogonalLoop=1;jettySize=auto;html=1;fontSize=30;" edge="1" parent="1" source="WtScBkQE4KedMKeKX7Xe-7" target="WtScBkQE4KedMKeKX7Xe-18">
          <mxGeometry relative="1" as="geometry" />
        </mxCell>
        <mxCell id="WtScBkQE4KedMKeKX7Xe-7" value="Unit Ready Lelang" style="rounded=1;whiteSpace=wrap;html=1;fontSize=15;fillColor=default;" vertex="1" parent="1">
          <mxGeometry x="350" y="300" width="150" height="60" as="geometry" />
        </mxCell>
        <mxCell id="WtScBkQE4KedMKeKX7Xe-8" style="edgeStyle=orthogonalEdgeStyle;rounded=0;orthogonalLoop=1;jettySize=auto;html=1;fontSize=30;entryX=0.5;entryY=0;entryDx=0;entryDy=0;" edge="1" parent="1" source="WtScBkQE4KedMKeKX7Xe-10" target="WtScBkQE4KedMKeKX7Xe-7">
          <mxGeometry relative="1" as="geometry" />
        </mxCell>
        <mxCell id="WtScBkQE4KedMKeKX7Xe-9" style="edgeStyle=orthogonalEdgeStyle;rounded=0;orthogonalLoop=1;jettySize=auto;html=1;entryX=0;entryY=0.5;entryDx=0;entryDy=0;fontSize=30;" edge="1" parent="1" source="WtScBkQE4KedMKeKX7Xe-10" target="WtScBkQE4KedMKeKX7Xe-12">
          <mxGeometry relative="1" as="geometry" />
        </mxCell>
        <mxCell id="WtScBkQE4KedMKeKX7Xe-10" value="&lt;div&gt;Mengirimkan data&lt;/div&gt;&lt;div&gt;inventori&lt;br&gt;&lt;/div&gt;" style="rounded=1;whiteSpace=wrap;html=1;fontSize=15;fillColor=default;" vertex="1" parent="1">
          <mxGeometry x="-175" y="230" width="150" height="60" as="geometry" />
        </mxCell>
        <mxCell id="WtScBkQE4KedMKeKX7Xe-11" style="edgeStyle=orthogonalEdgeStyle;rounded=0;orthogonalLoop=1;jettySize=auto;html=1;entryX=0;entryY=0.5;entryDx=0;entryDy=0;fontSize=30;" edge="1" parent="1" source="WtScBkQE4KedMKeKX7Xe-12" target="WtScBkQE4KedMKeKX7Xe-7">
          <mxGeometry relative="1" as="geometry" />
        </mxCell>
        <mxCell id="WtScBkQE4KedMKeKX7Xe-12" value="Unit Ready lelang" style="rounded=1;whiteSpace=wrap;html=1;fontSize=15;fillColor=default;" vertex="1" parent="1">
          <mxGeometry x="80" y="300" width="150" height="60" as="geometry" />
        </mxCell>
        <mxCell id="WtScBkQE4KedMKeKX7Xe-13" value="" style="edgeStyle=orthogonalEdgeStyle;rounded=0;orthogonalLoop=1;jettySize=auto;html=1;fontSize=30;" edge="1" parent="1" source="WtScBkQE4KedMKeKX7Xe-14" target="WtScBkQE4KedMKeKX7Xe-12">
          <mxGeometry relative="1" as="geometry" />
        </mxCell>
        <mxCell id="WtScBkQE4KedMKeKX7Xe-14" value="Input Unit Ready Lelang" style="rounded=1;whiteSpace=wrap;html=1;fontSize=15;fillColor=default;" vertex="1" parent="1">
          <mxGeometry x="80" y="180" width="150" height="60" as="geometry" />
        </mxCell>
        <mxCell id="WtScBkQE4KedMKeKX7Xe-15" value="" style="edgeStyle=orthogonalEdgeStyle;rounded=0;orthogonalLoop=1;jettySize=auto;html=1;fontSize=30;" edge="1" parent="1" source="WtScBkQE4KedMKeKX7Xe-16" target="WtScBkQE4KedMKeKX7Xe-7">
          <mxGeometry relative="1" as="geometry" />
        </mxCell>
        <mxCell id="WtScBkQE4KedMKeKX7Xe-16" value="Input Unit Ready Lelang" style="rounded=1;whiteSpace=wrap;html=1;fontSize=15;fillColor=default;" vertex="1" parent="1">
          <mxGeometry x="350" y="180" width="150" height="60" as="geometry" />
        </mxCell>
        <mxCell id="WtScBkQE4KedMKeKX7Xe-17" value="" style="edgeStyle=orthogonalEdgeStyle;rounded=0;orthogonalLoop=1;jettySize=auto;html=1;fontSize=30;" edge="1" parent="1" source="WtScBkQE4KedMKeKX7Xe-18" target="WtScBkQE4KedMKeKX7Xe-26">
          <mxGeometry relative="1" as="geometry" />
        </mxCell>
        <mxCell id="WtScBkQE4KedMKeKX7Xe-18" value="&lt;div align=&quot;left&quot;&gt;Melengkapi dokumen lelang seperti : bpkb, stnk, foto unit&lt;/div&gt;" style="rounded=1;whiteSpace=wrap;html=1;fontSize=15;fillColor=default;align=left;" vertex="1" parent="1">
          <mxGeometry x="313" y="400" width="225" height="60" as="geometry" />
        </mxCell>
        <mxCell id="WtScBkQE4KedMKeKX7Xe-19" value="" style="edgeStyle=orthogonalEdgeStyle;rounded=0;orthogonalLoop=1;jettySize=auto;html=1;fontSize=30;" edge="1" parent="1" source="WtScBkQE4KedMKeKX7Xe-20" target="WtScBkQE4KedMKeKX7Xe-31">
          <mxGeometry relative="1" as="geometry" />
        </mxCell>
        <mxCell id="WtScBkQE4KedMKeKX7Xe-20" value="&lt;div&gt;Input harga dasar lelang&lt;/div&gt;&lt;div&gt;dan &lt;br&gt;&lt;/div&gt;&lt;div&gt;jadwal lelang&lt;br&gt;&lt;/div&gt;" style="rounded=1;whiteSpace=wrap;html=1;fontSize=15;fillColor=default;" vertex="1" parent="1">
          <mxGeometry x="587.5" y="782.5" width="165" height="85" as="geometry" />
        </mxCell>
        <mxCell id="WtScBkQE4KedMKeKX7Xe-21" value="" style="edgeStyle=orthogonalEdgeStyle;rounded=0;orthogonalLoop=1;jettySize=auto;html=1;fontSize=30;" edge="1" parent="1" source="WtScBkQE4KedMKeKX7Xe-22" target="WtScBkQE4KedMKeKX7Xe-29">
          <mxGeometry relative="1" as="geometry" />
        </mxCell>
        <mxCell id="WtScBkQE4KedMKeKX7Xe-22" value="Jenis Lelang Peserta Umum" style="rounded=1;whiteSpace=wrap;html=1;fontSize=15;fillColor=default;align=center;" vertex="1" parent="1">
          <mxGeometry x="322" y="720" width="207" height="50" as="geometry" />
        </mxCell>
        <mxCell id="WtScBkQE4KedMKeKX7Xe-23" value="" style="edgeStyle=orthogonalEdgeStyle;rounded=0;orthogonalLoop=1;jettySize=auto;html=1;fontSize=30;" edge="1" parent="1" source="WtScBkQE4KedMKeKX7Xe-24" target="WtScBkQE4KedMKeKX7Xe-22">
          <mxGeometry relative="1" as="geometry" />
        </mxCell>
        <mxCell id="WtScBkQE4KedMKeKX7Xe-24" value="Pilih Jenis Lelang" style="rounded=1;whiteSpace=wrap;html=1;fontSize=15;fillColor=default;" vertex="1" parent="1">
          <mxGeometry x="330.75" y="620" width="189.5" height="70" as="geometry" />
        </mxCell>
        <mxCell id="WtScBkQE4KedMKeKX7Xe-25" value="" style="edgeStyle=orthogonalEdgeStyle;rounded=0;orthogonalLoop=1;jettySize=auto;html=1;fontSize=30;" edge="1" parent="1" source="WtScBkQE4KedMKeKX7Xe-26" target="WtScBkQE4KedMKeKX7Xe-24">
          <mxGeometry relative="1" as="geometry" />
        </mxCell>
        <mxCell id="WtScBkQE4KedMKeKX7Xe-26" value="Pilih Unit Satuan atau Paketan" style="rounded=1;whiteSpace=wrap;html=1;fontSize=15;fillColor=default;" vertex="1" parent="1">
          <mxGeometry x="315" y="500" width="219.5" height="90" as="geometry" />
        </mxCell>
        <mxCell id="WtScBkQE4KedMKeKX7Xe-27" value="Lelang Peserta Umum" style="text;html=1;strokeColor=none;fillColor=none;align=left;verticalAlign=middle;whiteSpace=wrap;rounded=0;fontSize=30;" vertex="1" parent="1">
          <mxGeometry x="-215" y="30" width="420" height="70" as="geometry" />
        </mxCell>
        <mxCell id="WtScBkQE4KedMKeKX7Xe-28" value="" style="edgeStyle=orthogonalEdgeStyle;rounded=0;orthogonalLoop=1;jettySize=auto;html=1;fontSize=30;" edge="1" parent="1" source="WtScBkQE4KedMKeKX7Xe-29" target="WtScBkQE4KedMKeKX7Xe-20">
          <mxGeometry relative="1" as="geometry" />
        </mxCell>
        <mxCell id="WtScBkQE4KedMKeKX7Xe-29" value="Input Harga Usulan" style="rounded=1;whiteSpace=wrap;html=1;fontSize=15;fillColor=default;align=center;" vertex="1" parent="1">
          <mxGeometry x="322" y="800" width="207" height="50" as="geometry" />
        </mxCell>
        <mxCell id="WtScBkQE4KedMKeKX7Xe-30" value="" style="edgeStyle=orthogonalEdgeStyle;rounded=0;orthogonalLoop=1;jettySize=auto;html=1;fontSize=30;" edge="1" parent="1" source="WtScBkQE4KedMKeKX7Xe-31" target="WtScBkQE4KedMKeKX7Xe-32">
          <mxGeometry relative="1" as="geometry" />
        </mxCell>
        <mxCell id="WtScBkQE4KedMKeKX7Xe-31" value="&lt;div&gt;Proses Lelang&lt;/div&gt;&lt;div&gt;Berjalan&lt;br&gt;&lt;/div&gt;" style="rounded=1;whiteSpace=wrap;html=1;fontSize=15;fillColor=default;" vertex="1" parent="1">
          <mxGeometry x="583.75" y="910" width="172.5" height="60" as="geometry" />
        </mxCell>
        <mxCell id="WtScBkQE4KedMKeKX7Xe-32" value="Selesai" style="rounded=1;whiteSpace=wrap;html=1;fontSize=15;fillColor=default;" vertex="1" parent="1">
          <mxGeometry x="583.75" y="1010" width="172.5" height="60" as="geometry" />
        </mxCell>
        <mxCell id="WtScBkQE4KedMKeKX7Xe-33" value="" style="rounded=0;whiteSpace=wrap;html=1;labelBackgroundColor=none;strokeColor=default;fontSize=15;fontColor=#0000CC;fillColor=none;" vertex="1" parent="1">
          <mxGeometry x="40" y="110" width="215" height="990" as="geometry" />
        </mxCell>
        <mxCell id="WtScBkQE4KedMKeKX7Xe-34" value="" style="rounded=0;whiteSpace=wrap;html=1;labelBackgroundColor=none;strokeColor=default;fontSize=15;fontColor=#0000CC;fillColor=none;" vertex="1" parent="1">
          <mxGeometry x="295" y="110" width="250" height="990" as="geometry" />
        </mxCell>
        <mxCell id="WtScBkQE4KedMKeKX7Xe-35" value="" style="rounded=0;whiteSpace=wrap;html=1;labelBackgroundColor=none;strokeColor=default;fontSize=15;fontColor=#0000CC;fillColor=none;" vertex="1" parent="1">
          <mxGeometry x="562.5" y="110" width="215" height="990" as="geometry" />
        </mxCell>
      </root>
    </mxGraphModel>
  </diagram>
  <diagram name="Flow Peserta Tertutup" id="3iEB61BIdJC6wX4m51Yt">
    <mxGraphModel dx="1964" dy="616" grid="1" gridSize="10" guides="1" tooltips="1" connect="1" arrows="1" fold="1" page="1" pageScale="1" pageWidth="850" pageHeight="1100" math="0" shadow="0">
      <root>
        <mxCell id="kWVbUQmf6to_I2VZsmRV-0" />
        <mxCell id="kWVbUQmf6to_I2VZsmRV-1" parent="kWVbUQmf6to_I2VZsmRV-0" />
        <mxCell id="VoLR0lM14dn-kgTyHnf3-0" value="" style="rounded=0;whiteSpace=wrap;html=1;labelBackgroundColor=none;strokeColor=default;fontSize=15;fontColor=#0000CC;fillColor=none;" vertex="1" parent="kWVbUQmf6to_I2VZsmRV-1">
          <mxGeometry x="-215" y="110" width="215" height="1250" as="geometry" />
        </mxCell>
        <mxCell id="VoLR0lM14dn-kgTyHnf3-1" value="" style="rounded=0;whiteSpace=wrap;html=1;labelBackgroundColor=none;strokeColor=default;fontSize=15;fontColor=#0000CC;fillColor=none;" vertex="1" parent="kWVbUQmf6to_I2VZsmRV-1">
          <mxGeometry x="290" y="110" width="260" height="1250" as="geometry" />
        </mxCell>
        <mxCell id="VoLR0lM14dn-kgTyHnf3-2" value="" style="rounded=0;whiteSpace=wrap;html=1;labelBackgroundColor=none;strokeColor=default;fontSize=15;fontColor=#0000CC;fillColor=none;" vertex="1" parent="kWVbUQmf6to_I2VZsmRV-1">
          <mxGeometry x="870" y="100" width="240" height="1250" as="geometry" />
        </mxCell>
        <mxCell id="VoLR0lM14dn-kgTyHnf3-3" value="Cabang" style="text;html=1;strokeColor=none;fillColor=none;align=center;verticalAlign=middle;whiteSpace=wrap;rounded=0;fontSize=15;" vertex="1" parent="kWVbUQmf6to_I2VZsmRV-1">
          <mxGeometry x="350" y="130" width="140" height="30" as="geometry" />
        </mxCell>
        <mxCell id="VoLR0lM14dn-kgTyHnf3-4" value="HeadOffice" style="text;html=1;strokeColor=none;fillColor=none;align=center;verticalAlign=middle;whiteSpace=wrap;rounded=0;fontSize=15;" vertex="1" parent="kWVbUQmf6to_I2VZsmRV-1">
          <mxGeometry x="85" y="130" width="140" height="30" as="geometry" />
        </mxCell>
        <mxCell id="VoLR0lM14dn-kgTyHnf3-5" value="Balai Lelang" style="text;html=1;strokeColor=none;fillColor=none;align=center;verticalAlign=middle;whiteSpace=wrap;rounded=0;fontSize=15;" vertex="1" parent="kWVbUQmf6to_I2VZsmRV-1">
          <mxGeometry x="600" y="130" width="140" height="30" as="geometry" />
        </mxCell>
        <mxCell id="VoLR0lM14dn-kgTyHnf3-6" value="Fincoy System" style="text;html=1;strokeColor=none;fillColor=none;align=center;verticalAlign=middle;whiteSpace=wrap;rounded=0;fontSize=15;" vertex="1" parent="kWVbUQmf6to_I2VZsmRV-1">
          <mxGeometry x="-165" y="130" width="140" height="30" as="geometry" />
        </mxCell>
        <mxCell id="VoLR0lM14dn-kgTyHnf3-7" value="" style="edgeStyle=orthogonalEdgeStyle;rounded=0;orthogonalLoop=1;jettySize=auto;html=1;fontSize=30;" edge="1" parent="kWVbUQmf6to_I2VZsmRV-1" source="VoLR0lM14dn-kgTyHnf3-8" target="VoLR0lM14dn-kgTyHnf3-19">
          <mxGeometry relative="1" as="geometry" />
        </mxCell>
        <mxCell id="VoLR0lM14dn-kgTyHnf3-8" value="Unit Ready Lelang" style="rounded=1;whiteSpace=wrap;html=1;fontSize=15;fillColor=default;" vertex="1" parent="kWVbUQmf6to_I2VZsmRV-1">
          <mxGeometry x="350" y="300" width="150" height="60" as="geometry" />
        </mxCell>
        <mxCell id="VoLR0lM14dn-kgTyHnf3-9" style="edgeStyle=orthogonalEdgeStyle;rounded=0;orthogonalLoop=1;jettySize=auto;html=1;fontSize=30;entryX=0.5;entryY=0;entryDx=0;entryDy=0;" edge="1" parent="kWVbUQmf6to_I2VZsmRV-1" source="VoLR0lM14dn-kgTyHnf3-11" target="VoLR0lM14dn-kgTyHnf3-8">
          <mxGeometry relative="1" as="geometry" />
        </mxCell>
        <mxCell id="VoLR0lM14dn-kgTyHnf3-10" style="edgeStyle=orthogonalEdgeStyle;rounded=0;orthogonalLoop=1;jettySize=auto;html=1;entryX=0;entryY=0.5;entryDx=0;entryDy=0;fontSize=30;" edge="1" parent="kWVbUQmf6to_I2VZsmRV-1" source="VoLR0lM14dn-kgTyHnf3-11" target="VoLR0lM14dn-kgTyHnf3-13">
          <mxGeometry relative="1" as="geometry" />
        </mxCell>
        <mxCell id="VoLR0lM14dn-kgTyHnf3-11" value="&lt;div&gt;Mengirimkan data&lt;/div&gt;&lt;div&gt;inventori&lt;br&gt;&lt;/div&gt;" style="rounded=1;whiteSpace=wrap;html=1;fontSize=15;fillColor=default;" vertex="1" parent="kWVbUQmf6to_I2VZsmRV-1">
          <mxGeometry x="-175" y="230" width="150" height="60" as="geometry" />
        </mxCell>
        <mxCell id="VoLR0lM14dn-kgTyHnf3-12" style="edgeStyle=orthogonalEdgeStyle;rounded=0;orthogonalLoop=1;jettySize=auto;html=1;entryX=0;entryY=0.5;entryDx=0;entryDy=0;fontSize=30;" edge="1" parent="kWVbUQmf6to_I2VZsmRV-1" source="VoLR0lM14dn-kgTyHnf3-13" target="VoLR0lM14dn-kgTyHnf3-8">
          <mxGeometry relative="1" as="geometry" />
        </mxCell>
        <mxCell id="VoLR0lM14dn-kgTyHnf3-13" value="Unit Ready lelang" style="rounded=1;whiteSpace=wrap;html=1;fontSize=15;fillColor=default;" vertex="1" parent="kWVbUQmf6to_I2VZsmRV-1">
          <mxGeometry x="80" y="300" width="150" height="60" as="geometry" />
        </mxCell>
        <mxCell id="VoLR0lM14dn-kgTyHnf3-14" value="" style="edgeStyle=orthogonalEdgeStyle;rounded=0;orthogonalLoop=1;jettySize=auto;html=1;fontSize=30;" edge="1" parent="kWVbUQmf6to_I2VZsmRV-1" source="VoLR0lM14dn-kgTyHnf3-15" target="VoLR0lM14dn-kgTyHnf3-13">
          <mxGeometry relative="1" as="geometry" />
        </mxCell>
        <mxCell id="VoLR0lM14dn-kgTyHnf3-15" value="Input Unit Ready Lelang" style="rounded=1;whiteSpace=wrap;html=1;fontSize=15;fillColor=default;" vertex="1" parent="kWVbUQmf6to_I2VZsmRV-1">
          <mxGeometry x="80" y="180" width="150" height="60" as="geometry" />
        </mxCell>
        <mxCell id="VoLR0lM14dn-kgTyHnf3-16" value="" style="edgeStyle=orthogonalEdgeStyle;rounded=0;orthogonalLoop=1;jettySize=auto;html=1;fontSize=30;" edge="1" parent="kWVbUQmf6to_I2VZsmRV-1" source="VoLR0lM14dn-kgTyHnf3-17" target="VoLR0lM14dn-kgTyHnf3-8">
          <mxGeometry relative="1" as="geometry" />
        </mxCell>
        <mxCell id="VoLR0lM14dn-kgTyHnf3-17" value="Input Unit Ready Lelang" style="rounded=1;whiteSpace=wrap;html=1;fontSize=15;fillColor=default;" vertex="1" parent="kWVbUQmf6to_I2VZsmRV-1">
          <mxGeometry x="350" y="180" width="150" height="60" as="geometry" />
        </mxCell>
        <mxCell id="VoLR0lM14dn-kgTyHnf3-18" value="" style="edgeStyle=orthogonalEdgeStyle;rounded=0;orthogonalLoop=1;jettySize=auto;html=1;fontSize=30;" edge="1" parent="kWVbUQmf6to_I2VZsmRV-1" source="VoLR0lM14dn-kgTyHnf3-19" target="VoLR0lM14dn-kgTyHnf3-27">
          <mxGeometry relative="1" as="geometry" />
        </mxCell>
        <mxCell id="VoLR0lM14dn-kgTyHnf3-19" value="&lt;div align=&quot;left&quot;&gt;Melengkapi dokumen lelang seperti : bpkb, stnk, foto unit&lt;/div&gt;" style="rounded=1;whiteSpace=wrap;html=1;fontSize=15;fillColor=default;align=left;" vertex="1" parent="kWVbUQmf6to_I2VZsmRV-1">
          <mxGeometry x="313" y="400" width="225" height="60" as="geometry" />
        </mxCell>
        <mxCell id="VoLR0lM14dn-kgTyHnf3-20" value="" style="edgeStyle=orthogonalEdgeStyle;rounded=0;orthogonalLoop=1;jettySize=auto;html=1;fontSize=30;" edge="1" parent="kWVbUQmf6to_I2VZsmRV-1" source="VoLR0lM14dn-kgTyHnf3-21" target="VoLR0lM14dn-kgTyHnf3-36">
          <mxGeometry relative="1" as="geometry" />
        </mxCell>
        <mxCell id="VoLR0lM14dn-kgTyHnf3-21" value="&lt;div&gt;Input harga dasar lelang dan jadwal lelang&lt;br&gt;&lt;/div&gt;" style="rounded=1;whiteSpace=wrap;html=1;fontSize=15;fillColor=default;" vertex="1" parent="kWVbUQmf6to_I2VZsmRV-1">
          <mxGeometry x="583.75" y="771.25" width="252.5" height="107.5" as="geometry" />
        </mxCell>
        <mxCell id="VoLR0lM14dn-kgTyHnf3-22" value="" style="edgeStyle=orthogonalEdgeStyle;rounded=0;orthogonalLoop=1;jettySize=auto;html=1;fontSize=30;" edge="1" parent="kWVbUQmf6to_I2VZsmRV-1" source="VoLR0lM14dn-kgTyHnf3-23" target="VoLR0lM14dn-kgTyHnf3-30">
          <mxGeometry relative="1" as="geometry" />
        </mxCell>
        <mxCell id="VoLR0lM14dn-kgTyHnf3-23" value="Jenis Lelang Tertutup" style="rounded=1;whiteSpace=wrap;html=1;fontSize=15;fillColor=default;align=center;" vertex="1" parent="kWVbUQmf6to_I2VZsmRV-1">
          <mxGeometry x="322" y="720" width="207" height="50" as="geometry" />
        </mxCell>
        <mxCell id="VoLR0lM14dn-kgTyHnf3-24" value="" style="edgeStyle=orthogonalEdgeStyle;rounded=0;orthogonalLoop=1;jettySize=auto;html=1;fontSize=30;" edge="1" parent="kWVbUQmf6to_I2VZsmRV-1" source="VoLR0lM14dn-kgTyHnf3-25" target="VoLR0lM14dn-kgTyHnf3-23">
          <mxGeometry relative="1" as="geometry" />
        </mxCell>
        <mxCell id="VoLR0lM14dn-kgTyHnf3-25" value="Pilih Jenis Lelang" style="rounded=1;whiteSpace=wrap;html=1;fontSize=15;fillColor=default;" vertex="1" parent="kWVbUQmf6to_I2VZsmRV-1">
          <mxGeometry x="330.75" y="620" width="189.5" height="70" as="geometry" />
        </mxCell>
        <mxCell id="VoLR0lM14dn-kgTyHnf3-26" value="" style="edgeStyle=orthogonalEdgeStyle;rounded=0;orthogonalLoop=1;jettySize=auto;html=1;fontSize=30;" edge="1" parent="kWVbUQmf6to_I2VZsmRV-1" source="VoLR0lM14dn-kgTyHnf3-27" target="VoLR0lM14dn-kgTyHnf3-25">
          <mxGeometry relative="1" as="geometry" />
        </mxCell>
        <mxCell id="VoLR0lM14dn-kgTyHnf3-27" value="Pilih Unit Satuan atau Paketan" style="rounded=1;whiteSpace=wrap;html=1;fontSize=15;fillColor=default;" vertex="1" parent="kWVbUQmf6to_I2VZsmRV-1">
          <mxGeometry x="315" y="500" width="219.5" height="90" as="geometry" />
        </mxCell>
        <mxCell id="VoLR0lM14dn-kgTyHnf3-28" value="Lelang Tertutup" style="text;html=1;strokeColor=none;fillColor=none;align=left;verticalAlign=middle;whiteSpace=wrap;rounded=0;fontSize=30;" vertex="1" parent="kWVbUQmf6to_I2VZsmRV-1">
          <mxGeometry x="-215" y="30" width="420" height="70" as="geometry" />
        </mxCell>
        <mxCell id="VoLR0lM14dn-kgTyHnf3-29" value="" style="edgeStyle=orthogonalEdgeStyle;rounded=0;orthogonalLoop=1;jettySize=auto;html=1;fontSize=30;" edge="1" parent="kWVbUQmf6to_I2VZsmRV-1" source="VoLR0lM14dn-kgTyHnf3-30" target="VoLR0lM14dn-kgTyHnf3-21">
          <mxGeometry relative="1" as="geometry" />
        </mxCell>
        <mxCell id="VoLR0lM14dn-kgTyHnf3-30" value="Input Harga Usulan" style="rounded=1;whiteSpace=wrap;html=1;fontSize=15;fillColor=default;align=center;" vertex="1" parent="kWVbUQmf6to_I2VZsmRV-1">
          <mxGeometry x="322" y="800" width="207" height="50" as="geometry" />
        </mxCell>
        <mxCell id="VoLR0lM14dn-kgTyHnf3-31" value="" style="edgeStyle=orthogonalEdgeStyle;rounded=0;orthogonalLoop=1;jettySize=auto;html=1;fontSize=30;" edge="1" parent="kWVbUQmf6to_I2VZsmRV-1" source="VoLR0lM14dn-kgTyHnf3-32" target="VoLR0lM14dn-kgTyHnf3-33">
          <mxGeometry relative="1" as="geometry" />
        </mxCell>
        <mxCell id="VoLR0lM14dn-kgTyHnf3-32" value="&lt;div&gt;Proses Lelang&lt;/div&gt;&lt;div&gt;Berjalan&lt;br&gt;&lt;/div&gt;" style="rounded=1;whiteSpace=wrap;html=1;fontSize=15;fillColor=default;" vertex="1" parent="kWVbUQmf6to_I2VZsmRV-1">
          <mxGeometry x="623.75" y="1050" width="172.5" height="60" as="geometry" />
        </mxCell>
        <mxCell id="VoLR0lM14dn-kgTyHnf3-33" value="Selesai" style="rounded=1;whiteSpace=wrap;html=1;fontSize=15;fillColor=default;" vertex="1" parent="kWVbUQmf6to_I2VZsmRV-1">
          <mxGeometry x="623.75" y="1160" width="172.5" height="60" as="geometry" />
        </mxCell>
        <mxCell id="VoLR0lM14dn-kgTyHnf3-34" value="Peserta" style="text;html=1;strokeColor=none;fillColor=none;align=center;verticalAlign=middle;whiteSpace=wrap;rounded=0;fontSize=15;" vertex="1" parent="kWVbUQmf6to_I2VZsmRV-1">
          <mxGeometry x="920" y="130" width="140" height="30" as="geometry" />
        </mxCell>
        <mxCell id="VoLR0lM14dn-kgTyHnf3-35" value="" style="edgeStyle=orthogonalEdgeStyle;rounded=0;orthogonalLoop=1;jettySize=auto;html=1;fontSize=30;" edge="1" parent="kWVbUQmf6to_I2VZsmRV-1" source="VoLR0lM14dn-kgTyHnf3-36" target="VoLR0lM14dn-kgTyHnf3-32">
          <mxGeometry relative="1" as="geometry" />
        </mxCell>
        <mxCell id="VoLR0lM14dn-kgTyHnf3-36" value="Sistem generate code sebagai undangan kepada peserta yang akan mengikuti lelang" style="whiteSpace=wrap;html=1;fontSize=15;rounded=1;" vertex="1" parent="kWVbUQmf6to_I2VZsmRV-1">
          <mxGeometry x="590" y="920" width="240" height="100" as="geometry" />
        </mxCell>
        <mxCell id="VoLR0lM14dn-kgTyHnf3-37" value="" style="edgeStyle=orthogonalEdgeStyle;rounded=0;orthogonalLoop=1;jettySize=auto;html=1;fontSize=30;" edge="1" parent="kWVbUQmf6to_I2VZsmRV-1" source="VoLR0lM14dn-kgTyHnf3-38" target="VoLR0lM14dn-kgTyHnf3-32">
          <mxGeometry relative="1" as="geometry" />
        </mxCell>
        <mxCell id="VoLR0lM14dn-kgTyHnf3-38" value="&lt;div&gt;Peserta menginputkan &lt;br&gt;&lt;/div&gt;&lt;div&gt;kode yang didapat balai lelang agar dapat mengikuti lelang&lt;br&gt;&lt;/div&gt;" style="whiteSpace=wrap;html=1;fontSize=15;rounded=1;" vertex="1" parent="kWVbUQmf6to_I2VZsmRV-1">
          <mxGeometry x="900" y="1035" width="180" height="90" as="geometry" />
        </mxCell>
        <mxCell id="VoLR0lM14dn-kgTyHnf3-39" value="" style="rounded=0;whiteSpace=wrap;html=1;labelBackgroundColor=none;strokeColor=default;fontSize=15;fontColor=#0000CC;fillColor=none;" vertex="1" parent="kWVbUQmf6to_I2VZsmRV-1">
          <mxGeometry x="40" y="110" width="215" height="1250" as="geometry" />
        </mxCell>
        <mxCell id="VoLR0lM14dn-kgTyHnf3-40" value="" style="rounded=0;whiteSpace=wrap;html=1;labelBackgroundColor=none;strokeColor=default;fontSize=15;fontColor=#0000CC;fillColor=none;" vertex="1" parent="kWVbUQmf6to_I2VZsmRV-1">
          <mxGeometry x="570" y="100" width="280" height="1250" as="geometry" />
        </mxCell>
      </root>
    </mxGraphModel>
  </diagram>
  <diagram name="Flow Risalah Lelang" id="GD9QHn7RHjnTeaVgeNJD">
    <mxGraphModel dx="1964" dy="616" grid="1" gridSize="10" guides="1" tooltips="1" connect="1" arrows="1" fold="1" page="1" pageScale="1" pageWidth="850" pageHeight="1100" math="0" shadow="0">
      <root>
        <mxCell id="HDG8QQSKw1SKYBJRQ7Tm-0" />
        <mxCell id="HDG8QQSKw1SKYBJRQ7Tm-1" parent="HDG8QQSKw1SKYBJRQ7Tm-0" />
        <mxCell id="4y-K0Vd5ET0zzt6IDnOd-0" value="" style="rounded=0;whiteSpace=wrap;html=1;labelBackgroundColor=none;strokeColor=default;fontSize=15;fontColor=#0000CC;fillColor=none;" vertex="1" parent="HDG8QQSKw1SKYBJRQ7Tm-1">
          <mxGeometry x="10" y="110" width="280" height="1250" as="geometry" />
        </mxCell>
        <mxCell id="4y-K0Vd5ET0zzt6IDnOd-1" value="" style="rounded=0;whiteSpace=wrap;html=1;labelBackgroundColor=none;strokeColor=default;fontSize=15;fontColor=#0000CC;fillColor=none;" vertex="1" parent="HDG8QQSKw1SKYBJRQ7Tm-1">
          <mxGeometry x="303.75" y="110" width="246.25" height="1250" as="geometry" />
        </mxCell>
        <mxCell id="4y-K0Vd5ET0zzt6IDnOd-2" value="" style="rounded=0;whiteSpace=wrap;html=1;labelBackgroundColor=none;strokeColor=default;fontSize=15;fontColor=#0000CC;fillColor=none;" vertex="1" parent="HDG8QQSKw1SKYBJRQ7Tm-1">
          <mxGeometry x="565" y="110" width="210" height="1250" as="geometry" />
        </mxCell>
        <mxCell id="4y-K0Vd5ET0zzt6IDnOd-3" value="" style="rounded=0;whiteSpace=wrap;html=1;labelBackgroundColor=none;strokeColor=default;fontSize=15;fontColor=#0000CC;fillColor=none;" vertex="1" parent="HDG8QQSKw1SKYBJRQ7Tm-1">
          <mxGeometry x="-290" y="110" width="280" height="1250" as="geometry" />
        </mxCell>
        <mxCell id="4y-K0Vd5ET0zzt6IDnOd-4" value="Cabang" style="text;html=1;strokeColor=none;fillColor=none;align=center;verticalAlign=middle;whiteSpace=wrap;rounded=0;fontSize=15;" vertex="1" parent="HDG8QQSKw1SKYBJRQ7Tm-1">
          <mxGeometry x="350" y="130" width="140" height="30" as="geometry" />
        </mxCell>
        <mxCell id="4y-K0Vd5ET0zzt6IDnOd-5" value="HeadOffice" style="text;html=1;strokeColor=none;fillColor=none;align=center;verticalAlign=middle;whiteSpace=wrap;rounded=0;fontSize=15;" vertex="1" parent="HDG8QQSKw1SKYBJRQ7Tm-1">
          <mxGeometry x="85" y="130" width="140" height="30" as="geometry" />
        </mxCell>
        <mxCell id="4y-K0Vd5ET0zzt6IDnOd-6" value="Balai Lelang" style="text;html=1;strokeColor=none;fillColor=none;align=center;verticalAlign=middle;whiteSpace=wrap;rounded=0;fontSize=15;" vertex="1" parent="HDG8QQSKw1SKYBJRQ7Tm-1">
          <mxGeometry x="600" y="130" width="140" height="30" as="geometry" />
        </mxCell>
        <mxCell id="4y-K0Vd5ET0zzt6IDnOd-7" value="Fincoy System" style="text;html=1;strokeColor=none;fillColor=none;align=center;verticalAlign=middle;whiteSpace=wrap;rounded=0;fontSize=15;" vertex="1" parent="HDG8QQSKw1SKYBJRQ7Tm-1">
          <mxGeometry x="-220" y="130" width="140" height="30" as="geometry" />
        </mxCell>
        <mxCell id="4y-K0Vd5ET0zzt6IDnOd-8" value="" style="edgeStyle=orthogonalEdgeStyle;rounded=0;orthogonalLoop=1;jettySize=auto;html=1;fontSize=30;" edge="1" parent="HDG8QQSKw1SKYBJRQ7Tm-1" source="4y-K0Vd5ET0zzt6IDnOd-9" target="4y-K0Vd5ET0zzt6IDnOd-20">
          <mxGeometry relative="1" as="geometry" />
        </mxCell>
        <mxCell id="4y-K0Vd5ET0zzt6IDnOd-9" value="Unit Ready Lelang" style="rounded=1;whiteSpace=wrap;html=1;fontSize=15;fillColor=default;" vertex="1" parent="HDG8QQSKw1SKYBJRQ7Tm-1">
          <mxGeometry x="350" y="300" width="150" height="60" as="geometry" />
        </mxCell>
        <mxCell id="4y-K0Vd5ET0zzt6IDnOd-10" style="edgeStyle=orthogonalEdgeStyle;rounded=0;orthogonalLoop=1;jettySize=auto;html=1;fontSize=30;entryX=0.5;entryY=0;entryDx=0;entryDy=0;" edge="1" parent="HDG8QQSKw1SKYBJRQ7Tm-1" source="4y-K0Vd5ET0zzt6IDnOd-12" target="4y-K0Vd5ET0zzt6IDnOd-9">
          <mxGeometry relative="1" as="geometry" />
        </mxCell>
        <mxCell id="4y-K0Vd5ET0zzt6IDnOd-11" style="edgeStyle=orthogonalEdgeStyle;rounded=0;orthogonalLoop=1;jettySize=auto;html=1;entryX=0;entryY=0.5;entryDx=0;entryDy=0;fontSize=30;" edge="1" parent="HDG8QQSKw1SKYBJRQ7Tm-1" source="4y-K0Vd5ET0zzt6IDnOd-12" target="4y-K0Vd5ET0zzt6IDnOd-14">
          <mxGeometry relative="1" as="geometry" />
        </mxCell>
        <mxCell id="4y-K0Vd5ET0zzt6IDnOd-12" value="&lt;div&gt;Mengirimkan data&lt;/div&gt;&lt;div&gt;inventori&lt;br&gt;&lt;/div&gt;" style="rounded=1;whiteSpace=wrap;html=1;fontSize=15;fillColor=default;" vertex="1" parent="HDG8QQSKw1SKYBJRQ7Tm-1">
          <mxGeometry x="-225" y="240" width="150" height="60" as="geometry" />
        </mxCell>
        <mxCell id="4y-K0Vd5ET0zzt6IDnOd-13" style="edgeStyle=orthogonalEdgeStyle;rounded=0;orthogonalLoop=1;jettySize=auto;html=1;entryX=0;entryY=0.5;entryDx=0;entryDy=0;fontSize=30;" edge="1" parent="HDG8QQSKw1SKYBJRQ7Tm-1" source="4y-K0Vd5ET0zzt6IDnOd-14" target="4y-K0Vd5ET0zzt6IDnOd-9">
          <mxGeometry relative="1" as="geometry" />
        </mxCell>
        <mxCell id="4y-K0Vd5ET0zzt6IDnOd-14" value="Unit Ready lelang" style="rounded=1;whiteSpace=wrap;html=1;fontSize=15;fillColor=default;" vertex="1" parent="HDG8QQSKw1SKYBJRQ7Tm-1">
          <mxGeometry x="80" y="300" width="150" height="60" as="geometry" />
        </mxCell>
        <mxCell id="4y-K0Vd5ET0zzt6IDnOd-15" value="" style="edgeStyle=orthogonalEdgeStyle;rounded=0;orthogonalLoop=1;jettySize=auto;html=1;fontSize=30;" edge="1" parent="HDG8QQSKw1SKYBJRQ7Tm-1" source="4y-K0Vd5ET0zzt6IDnOd-16" target="4y-K0Vd5ET0zzt6IDnOd-14">
          <mxGeometry relative="1" as="geometry" />
        </mxCell>
        <mxCell id="4y-K0Vd5ET0zzt6IDnOd-16" value="Input Unit Ready Lelang" style="rounded=1;whiteSpace=wrap;html=1;fontSize=15;fillColor=default;" vertex="1" parent="HDG8QQSKw1SKYBJRQ7Tm-1">
          <mxGeometry x="80" y="180" width="150" height="60" as="geometry" />
        </mxCell>
        <mxCell id="4y-K0Vd5ET0zzt6IDnOd-17" value="" style="edgeStyle=orthogonalEdgeStyle;rounded=0;orthogonalLoop=1;jettySize=auto;html=1;fontSize=30;" edge="1" parent="HDG8QQSKw1SKYBJRQ7Tm-1" source="4y-K0Vd5ET0zzt6IDnOd-18" target="4y-K0Vd5ET0zzt6IDnOd-9">
          <mxGeometry relative="1" as="geometry" />
        </mxCell>
        <mxCell id="4y-K0Vd5ET0zzt6IDnOd-18" value="Input Unit Ready Lelang" style="rounded=1;whiteSpace=wrap;html=1;fontSize=15;fillColor=default;" vertex="1" parent="HDG8QQSKw1SKYBJRQ7Tm-1">
          <mxGeometry x="350" y="180" width="150" height="60" as="geometry" />
        </mxCell>
        <mxCell id="4y-K0Vd5ET0zzt6IDnOd-19" value="" style="edgeStyle=orthogonalEdgeStyle;rounded=0;orthogonalLoop=1;jettySize=auto;html=1;fontSize=30;" edge="1" parent="HDG8QQSKw1SKYBJRQ7Tm-1" source="4y-K0Vd5ET0zzt6IDnOd-20" target="4y-K0Vd5ET0zzt6IDnOd-26">
          <mxGeometry relative="1" as="geometry" />
        </mxCell>
        <mxCell id="4y-K0Vd5ET0zzt6IDnOd-20" value="&lt;div align=&quot;left&quot;&gt;Melengkapi dokumen lelang seperti : bpkb, stnk, foto unit&lt;/div&gt;" style="rounded=1;whiteSpace=wrap;html=1;fontSize=15;fillColor=default;align=left;" vertex="1" parent="HDG8QQSKw1SKYBJRQ7Tm-1">
          <mxGeometry x="313" y="400" width="225" height="60" as="geometry" />
        </mxCell>
        <mxCell id="4y-K0Vd5ET0zzt6IDnOd-21" value="" style="edgeStyle=orthogonalEdgeStyle;rounded=0;orthogonalLoop=1;jettySize=auto;html=1;fontSize=30;" edge="1" parent="HDG8QQSKw1SKYBJRQ7Tm-1" source="4y-K0Vd5ET0zzt6IDnOd-22" target="4y-K0Vd5ET0zzt6IDnOd-29">
          <mxGeometry relative="1" as="geometry" />
        </mxCell>
        <mxCell id="4y-K0Vd5ET0zzt6IDnOd-22" value="Jenis Risalah lelang" style="rounded=1;whiteSpace=wrap;html=1;fontSize=15;fillColor=default;align=center;" vertex="1" parent="HDG8QQSKw1SKYBJRQ7Tm-1">
          <mxGeometry x="322" y="720" width="207" height="50" as="geometry" />
        </mxCell>
        <mxCell id="4y-K0Vd5ET0zzt6IDnOd-23" value="" style="edgeStyle=orthogonalEdgeStyle;rounded=0;orthogonalLoop=1;jettySize=auto;html=1;fontSize=30;" edge="1" parent="HDG8QQSKw1SKYBJRQ7Tm-1" source="4y-K0Vd5ET0zzt6IDnOd-24" target="4y-K0Vd5ET0zzt6IDnOd-22">
          <mxGeometry relative="1" as="geometry" />
        </mxCell>
        <mxCell id="4y-K0Vd5ET0zzt6IDnOd-24" value="Pilih Jenis Lelang" style="rounded=1;whiteSpace=wrap;html=1;fontSize=15;fillColor=default;" vertex="1" parent="HDG8QQSKw1SKYBJRQ7Tm-1">
          <mxGeometry x="330.75" y="620" width="189.5" height="70" as="geometry" />
        </mxCell>
        <mxCell id="4y-K0Vd5ET0zzt6IDnOd-25" value="" style="edgeStyle=orthogonalEdgeStyle;rounded=0;orthogonalLoop=1;jettySize=auto;html=1;fontSize=30;" edge="1" parent="HDG8QQSKw1SKYBJRQ7Tm-1" source="4y-K0Vd5ET0zzt6IDnOd-26" target="4y-K0Vd5ET0zzt6IDnOd-24">
          <mxGeometry relative="1" as="geometry" />
        </mxCell>
        <mxCell id="4y-K0Vd5ET0zzt6IDnOd-26" value="Pilih Unit Satuan atau Paketan" style="rounded=1;whiteSpace=wrap;html=1;fontSize=15;fillColor=default;" vertex="1" parent="HDG8QQSKw1SKYBJRQ7Tm-1">
          <mxGeometry x="315" y="500" width="219.5" height="90" as="geometry" />
        </mxCell>
        <mxCell id="4y-K0Vd5ET0zzt6IDnOd-27" value="Risalah Lelang" style="text;html=1;strokeColor=none;fillColor=none;align=left;verticalAlign=middle;whiteSpace=wrap;rounded=0;fontSize=30;" vertex="1" parent="HDG8QQSKw1SKYBJRQ7Tm-1">
          <mxGeometry x="-290" y="40" width="420" height="70" as="geometry" />
        </mxCell>
        <mxCell id="4y-K0Vd5ET0zzt6IDnOd-28" value="" style="edgeStyle=orthogonalEdgeStyle;rounded=0;orthogonalLoop=1;jettySize=auto;html=1;fontSize=30;exitX=0.5;exitY=1;exitDx=0;exitDy=0;entryX=1;entryY=0.5;entryDx=0;entryDy=0;" edge="1" parent="HDG8QQSKw1SKYBJRQ7Tm-1" source="4y-K0Vd5ET0zzt6IDnOd-29" target="4y-K0Vd5ET0zzt6IDnOd-40">
          <mxGeometry relative="1" as="geometry" />
        </mxCell>
        <mxCell id="4y-K0Vd5ET0zzt6IDnOd-29" value="&lt;div&gt;Input Harga Usulan,&lt;br&gt;&lt;/div&gt;" style="rounded=1;whiteSpace=wrap;html=1;fontSize=15;fillColor=default;align=center;" vertex="1" parent="HDG8QQSKw1SKYBJRQ7Tm-1">
          <mxGeometry x="322" y="798.13" width="207" height="51.87" as="geometry" />
        </mxCell>
        <mxCell id="4y-K0Vd5ET0zzt6IDnOd-30" value="Selesai" style="rounded=1;whiteSpace=wrap;html=1;fontSize=15;fillColor=default;" vertex="1" parent="HDG8QQSKw1SKYBJRQ7Tm-1">
          <mxGeometry x="587.5" y="1240" width="172.5" height="60" as="geometry" />
        </mxCell>
        <mxCell id="4y-K0Vd5ET0zzt6IDnOd-31" value="" style="edgeStyle=orthogonalEdgeStyle;rounded=0;orthogonalLoop=1;jettySize=auto;html=1;fontSize=30;" edge="1" parent="HDG8QQSKw1SKYBJRQ7Tm-1" source="4y-K0Vd5ET0zzt6IDnOd-32" target="4y-K0Vd5ET0zzt6IDnOd-29">
          <mxGeometry relative="1" as="geometry" />
        </mxCell>
        <mxCell id="4y-K0Vd5ET0zzt6IDnOd-32" value="&lt;div&gt;Head office tidak menyetujui harga&lt;/div&gt;&lt;div&gt;usulan dan menginputkan alasan / harga yang diharapkan&lt;br&gt;&lt;/div&gt;" style="whiteSpace=wrap;html=1;fontSize=15;rounded=1;" vertex="1" parent="HDG8QQSKw1SKYBJRQ7Tm-1">
          <mxGeometry x="40" y="771.88" width="200" height="106.25" as="geometry" />
        </mxCell>
        <mxCell id="4y-K0Vd5ET0zzt6IDnOd-33" value="" style="edgeStyle=orthogonalEdgeStyle;rounded=0;orthogonalLoop=1;jettySize=auto;html=1;labelBackgroundColor=none;fontSize=15;" edge="1" parent="HDG8QQSKw1SKYBJRQ7Tm-1" source="4y-K0Vd5ET0zzt6IDnOd-34" target="4y-K0Vd5ET0zzt6IDnOd-30">
          <mxGeometry relative="1" as="geometry" />
        </mxCell>
        <mxCell id="4y-K0Vd5ET0zzt6IDnOd-34" value="Sistem otomatis memasukan unit pada event dengan waktu yang terdekat" style="whiteSpace=wrap;html=1;fontSize=15;rounded=1;" vertex="1" parent="HDG8QQSKw1SKYBJRQ7Tm-1">
          <mxGeometry x="583.75" y="1112.5" width="176.25" height="70" as="geometry" />
        </mxCell>
        <mxCell id="4y-K0Vd5ET0zzt6IDnOd-35" value="" style="edgeStyle=orthogonalEdgeStyle;rounded=0;orthogonalLoop=1;jettySize=auto;html=1;labelBackgroundColor=none;fontSize=15;startArrow=none;" edge="1" parent="HDG8QQSKw1SKYBJRQ7Tm-1" source="4y-K0Vd5ET0zzt6IDnOd-41" target="4y-K0Vd5ET0zzt6IDnOd-34">
          <mxGeometry relative="1" as="geometry" />
        </mxCell>
        <mxCell id="4y-K0Vd5ET0zzt6IDnOd-36" value="" style="edgeStyle=orthogonalEdgeStyle;rounded=0;orthogonalLoop=1;jettySize=auto;html=1;" edge="1" parent="HDG8QQSKw1SKYBJRQ7Tm-1" source="4y-K0Vd5ET0zzt6IDnOd-37" target="4y-K0Vd5ET0zzt6IDnOd-41">
          <mxGeometry relative="1" as="geometry" />
        </mxCell>
        <mxCell id="4y-K0Vd5ET0zzt6IDnOd-37" value="&lt;div&gt;Head office menyetujui harga&lt;/div&gt;&lt;div&gt;usulan&lt;br&gt;&lt;/div&gt;" style="whiteSpace=wrap;html=1;fontSize=15;rounded=1;" vertex="1" parent="HDG8QQSKw1SKYBJRQ7Tm-1">
          <mxGeometry x="39.99999999999999" y="1110" width="194.25" height="75" as="geometry" />
        </mxCell>
        <mxCell id="4y-K0Vd5ET0zzt6IDnOd-38" value="&lt;font style=&quot;font-size: 15px;&quot;&gt;&lt;font style=&quot;font-size: 15px;&quot;&gt;Tidak&lt;/font&gt;&lt;/font&gt;" style="edgeStyle=orthogonalEdgeStyle;rounded=0;orthogonalLoop=1;jettySize=auto;html=1;fontSize=30;labelBackgroundColor=none;" edge="1" parent="HDG8QQSKw1SKYBJRQ7Tm-1" source="4y-K0Vd5ET0zzt6IDnOd-40" target="4y-K0Vd5ET0zzt6IDnOd-32">
          <mxGeometry relative="1" as="geometry" />
        </mxCell>
        <mxCell id="4y-K0Vd5ET0zzt6IDnOd-39" value="&#xa;&lt;font style=&quot;font-size: 15px;&quot;&gt;&lt;font style=&quot;font-size: 15px;&quot;&gt;Menyetujui&lt;/font&gt;&lt;/font&gt;&#xa;&#xa;" style="edgeStyle=orthogonalEdgeStyle;rounded=0;orthogonalLoop=1;jettySize=auto;html=1;labelBackgroundColor=none;fontSize=15;" edge="1" parent="HDG8QQSKw1SKYBJRQ7Tm-1" source="4y-K0Vd5ET0zzt6IDnOd-40" target="4y-K0Vd5ET0zzt6IDnOd-37">
          <mxGeometry relative="1" as="geometry" />
        </mxCell>
        <mxCell id="4y-K0Vd5ET0zzt6IDnOd-40" value="&lt;div&gt;Head Office&lt;/div&gt;&lt;div&gt;Menyetujui?&lt;br&gt;&lt;/div&gt;" style="rhombus;whiteSpace=wrap;html=1;fontSize=15;rounded=1;" vertex="1" parent="HDG8QQSKw1SKYBJRQ7Tm-1">
          <mxGeometry x="72.88" y="930" width="130" height="105" as="geometry" />
        </mxCell>
        <mxCell id="4y-K0Vd5ET0zzt6IDnOd-41" value="Input bukti transfer dan data peserta pemenang" style="rounded=1;whiteSpace=wrap;html=1;fontSize=15;fillColor=default;align=center;" vertex="1" parent="HDG8QQSKw1SKYBJRQ7Tm-1">
          <mxGeometry x="315" y="1107.5" width="207" height="80" as="geometry" />
        </mxCell>
      </root>
    </mxGraphModel>
  </diagram>
</mxfile>
